<?xml version="1.0" encoding="UTF-8" standalone="no"?>
<!-- Created with Inkscape (http://www.inkscape.org/) -->

<svg
   width="46.315357mm"
   height="31.945992mm"
   viewBox="0 0 46.315357 31.945992"
   version="1.1"
   id="svg1"
   xml:space="preserve"
   inkscape:export-filename="logo.svg"
   inkscape:export-xdpi="96"
   inkscape:export-ydpi="96"
   xmlns:inkscape="http://www.inkscape.org/namespaces/inkscape"
   xmlns:sodipodi="http://sodipodi.sourceforge.net/DTD/sodipodi-0.dtd"
   xmlns="http://www.w3.org/2000/svg"
   xmlns:svg="http://www.w3.org/2000/svg"><sodipodi:namedview
     id="namedview1"
     pagecolor="#ffffff"
     bordercolor="#000000"
     borderopacity="0.25"
     inkscape:showpageshadow="2"
     inkscape:pageopacity="0.0"
     inkscape:pagecheckerboard="0"
     inkscape:deskcolor="#d1d1d1"
     inkscape:document-units="mm" /><defs
     id="defs1" /><g
     inkscape:label="Layer 1"
     inkscape:groupmode="layer"
     id="layer1"
     transform="translate(-235.92258,-114.944)"><path
       d="m 254.37286,115.16644 c -2.04611,0.42334 -4.16278,1.5875 -5.96195,3.24556 -1.86972,1.72861 -2.71639,3.03389 -3.4925,5.46805 -0.56444,1.76389 -0.67028,1.86973 -2.43416,2.36362 -4.48028,1.30527 -6.52639,3.73944 -6.56167,7.72583 0,3.35139 1.16417,5.46806 3.70417,6.63222 4.05694,1.86972 10.795,-0.21166 15.73389,-4.86833 3.84527,-3.63361 3.95111,-3.21028 -1.83445,-6.13834 -4.62139,-2.29305 -4.97417,-2.54 -4.40972,-3.06916 0.52917,-0.52917 0.84667,-0.49389 4.33917,0.35278 l 3.81,0.9525 1.12888,-1.09362 c 0.70556,-0.67027 1.34056,-0.98777 1.69334,-0.88194 0.84666,0.35278 1.02305,1.27 0.35278,1.97556 -0.56445,0.635 -0.52917,0.70555 0.17638,0.91722 0.42334,0.14111 0.81139,0.17639 0.84667,0.10583 3.84528,-4.62139 4.51556,-5.22111 5.67972,-5.22111 1.51695,0 2.64584,1.02306 2.64584,2.36361 0,0.74083 -0.56445,1.51695 -2.36361,3.175 -1.30528,1.23472 -2.50473,2.2225 -2.64584,2.2225 -0.14111,0 -0.28222,0.38806 -0.28222,0.88195 0,1.02305 0.10583,1.05833 1.19945,0.35277 0.74083,-0.49389 0.84666,-0.45861 1.44638,0.17639 0.635,0.70556 0.635,0.74084 -0.49388,1.905 l -1.16417,1.19945 0.98778,3.77472 c 0.88194,3.45722 0.91722,3.77472 0.38805,4.30389 -0.3175,0.3175 -0.635,0.52917 -0.74083,0.42333 -0.0706,-0.0705 -1.23472,-2.32833 -2.57528,-5.04472 l -2.43417,-4.90361 -2.32833,2.18722 c -3.52778,3.28083 -4.30389,5.64445 -2.57528,7.72583 0.45861,0.56445 1.69334,1.37584 2.68111,1.79917 1.69334,0.74083 2.2225,0.77611 9.10167,0.67028 6.6675,-0.10583 7.37306,-0.17639 8.67833,-0.88195 1.94028,-1.05833 3.88056,-3.13972 4.79778,-5.18583 1.02306,-2.29306 1.02306,-6.17361 0.0353,-8.39611 -0.35278,-0.88195 -0.70556,-2.32833 -0.70556,-3.28083 -0.0705,-2.32834 -0.635,-3.95112 -2.2225,-6.06778 -2.29305,-3.06917 -6.13833,-4.65667 -10.01888,-4.16278 -1.86973,0.21167 -2.01084,0.17639 -3.42195,-1.02306 -2.61056,-2.25777 -7.26722,-3.42194 -10.75972,-2.68111 z"
       id="path1"
       style="fill:#000000;stroke:none;stroke-width:0.0352778" /></g></svg>
