<svg xmlns="http://www.w3.org/2000/svg" xml:space="preserve" viewBox="0 0 88.9 31.9"><path d="M18.5.2a13 13 0 0 0-6 3.3A11 11 0 0 0 9 8.9c-.6 1.8-.7 2-2.4 2.4C2 12.6 0 15 0 19c0 3.4 1.2 5.5 3.7 6.7 4 1.8 10.8-.3 15.7-5 3.9-3.5 4-3.1-1.8-6-4.6-2.3-5-2.6-4.4-3.1.5-.5.8-.5 4.3.3l3.8 1 1.2-1.1c.7-.7 1.3-1 1.7-.9.8.4 1 1.3.3 2-.5.6-.5.7.2.9l.8.1c3.9-4.6 4.6-5.2 5.7-5.2 1.5 0 2.7 1 2.7 2.4 0 .7-.6 1.5-2.4 3.1a17.6 17.6 0 0 1-2.6 2.3c-.2 0-.3.3-.3.8 0 1 0 1 1.2.4.7-.5.8-.5 1.4.2.7.7.7.7-.5 1.9L29.6 21l1 3.7c.8 3.5.9 3.8.3 4.3-.3.4-.6.6-.7.5l-2.6-5-2.4-5-2.3 2.2c-3.6 3.3-4.3 5.7-2.6 7.7a7 7 0 0 0 2.7 1.8c1.7.8 2.2.8 9 .7 6.7-.1 7.4-.2 8.7-.9 2-1 4-3.1 4.8-5.2 1-2.3 1-6.1 0-8.4-.3-.8-.6-2.3-.6-3.2A10.8 10.8 0 0 0 32.7 4c-2 .1-2 .1-3.5-1.1A13.7 13.7 0 0 0 18.5.2zm31.9 12.5c0 4.6 0 4.8.8 4.8.5 0 .7-.2.7-1.3 0-2.3.5-2.5 1.3-.5.7 1.5 1 1.8 1.7 1.8h.8l-.9-2c-1.3-3-1.3-3-.3-5 1-2.2 1.1-2.5.2-2.5-.5 0-1 .5-1.7 1.8l-1 1.9V9.8c-.3-1.5-.4-1.8-1-1.8s-.7.3-.7 4.7zm5.9-3.4.9 7.7c0 .3.3.5.8.5.8 0 1-.2 1.3-2 .6-2.9.9-3.3 1.2-1.8.7 3.3.9 3.8 1.7 3.8.8 0 .8-.2 1.2-3.8.6-5.3.6-5.7-.2-5.7-.6 0-.8.3-1 2 0 1.1-.2 2.4-.3 2.7 0 .4-.2-.2-.5-1.4-.7-3.2-.7-3.4-1.4-3.2-.4 0-.7.8-1 2.7l-.6 2.7-.3-2.8c-.3-2.5-.4-2.7-1.2-2.7-.7 0-.8 0-.6 1.3zM71 12.7v4.8h2.4c2.2 0 2.4 0 2.4-.7 0-.6-.2-.7-1.5-.7h-1.6V8h-1.8zm5.2 0v4.8H78V8h-1.8zm2.1-4c0 .4.3.7.7.7.7 0 .7.2.7 4v4.1h1.8v-4c0-3.8 0-4.1.7-4.1.4 0 .7-.2.8-.4.3-1 2 4.2 2 6.2.2 2 .3 2.1 1 2.2.7.1.8 0 .8-1.8 0-1.3.3-2.8 1-4.6L89 8.2c0-.1-.3-.2-.7-.2-.5 0-1 .4-1.5 1.6l-.7 1.7-.7-1.7-.7-1.6h-3.1c-3 0-3.2 0-3.2.7zm-12.6 3.4-1 4.6c-.2.7 0 .8.7.8s1-.2 1-1c0-.7 0-.8 1-.7 1 0 1.3.3 1.3.9.1.6.4.8 1 .8.7 0 .8-.1.7-.8l-1-4.5c-.8-3.6-.9-3.7-1.9-3.8l-1-.1zm2.4 1.4c0 .6-.2.8-.7.8-.5 0-.6-.1-.3-1.5l.3-1.8c0-.5.6 1.5.7 2.5zM50 20.6c0 .5.4.8 1 .9.6 0 .7.2.8 4 0 3.7.1 4 .8 4 .6 0 .7-.2.7-4v-4.1h.9c.6 0 .8-.2.8-.7 0-.7-.2-.7-2.4-.7-2.2 0-2.5 0-2.5.6zm5.4 4.1c0 4.6 0 4.8.7 4.8.6 0 .7-.2.7-1.6 0-1 .1-1.6.5-1.6.2 0 .6.7.8 1.6.4 1.2.6 1.6 1.2 1.6.7 0 .8-.3.3-2-.2-1-.2-1.5.2-2 .7-1 .7-3.8 0-4.7-.5-.7-1-.8-2.5-.8h-2zm3-1.5c0 1.3-.1 1.5-.8 1.6-.7.2-.8 0-.8-1.6 0-1.7 0-1.8.8-1.7.7 0 .8.3.8 1.7zm8.6-2.8 1 4.8c.9 4 1 4.3 1.7 4.3.6 0 .9-.2 1-.8l1-4 .8-4c.1-.6 0-.7-.7-.7-.8 0-.9.2-1.2 2.5-.7 3.7-1 3.9-1.5 1l-.6-3.1c-.2-.6-1.5-.6-1.5 0zm6 4.3v4.8h2.3c2 0 2.3 0 2.3-.7 0-.5-.3-.7-1.5-.8-1.4 0-1.5-.2-1.6-1.2-.1-1.1 0-1.2 1.1-1.2 1 0 1.3-.1 1.3-.6 0-.6-.3-.8-1.1-.9-1 0-1.2-.2-1.2-1.3 0-1.2 0-1.2 1.5-1.3 1.2-.1 1.5-.3 1.5-.9 0-.6-.2-.6-2.3-.6H73zm5.3 0v4.8h2.3c2 0 2.3 0 2.3-.7 0-.6-.2-.7-1.4-.7H80V20h-1.8zm5.7-4.3c-.2.2-.4 1.3-.4 2.4v2l1.5.5c1.3.5 1.5.7 1.5 1.6 0 .8-.2 1-.7 1-.5 0-.7-.3-.8-.8 0-.5-.4-.8-.8-.8-.6 0-.7.3-.7 1.2 0 1.5.5 2 2.3 2 .8 0 1.6-.2 1.9-.4.2-.3.4-1.3.4-2.4v-2l-1.5-.5c-1.3-.4-1.5-.7-1.5-1.6 0-.8.1-1 .7-1 .5 0 .7.2.8.7 0 .6.4.9.8.9.6 0 .7-.3.7-1.2 0-.6-.2-1.4-.4-1.6-.6-.6-3.2-.6-3.8 0zm-22.2 3.7-1 4.6c-.2.7 0 .8.7.8.8 0 1-.2 1-.9 0-.8 0-.9 1.2-.9 1 0 1.2.1 1.2 1 0 .6.2.8 1 .8.7 0 .8-.1.6-.8l-1-4.6-.7-3.8h-2.2zm2.4 1.2c0 .8-.2 1-.7 1-.6 0-.6-.1-.2-1.8.3-1.6.4-1.7.6-1l.3 1.8z"/></svg>